<svg width="50" height="50" viewBox="0 0 50 50" fill="none" xmlns="http://www.w3.org/2000/svg">
<rect width="50" height="50" rx="25" fill="white"/>
<path d="M25.6108 37.564C24.1639 37.564 22.7739 37.2791 21.4409 36.7095C20.1193 36.1398 18.9458 35.3195 17.9204 34.2485C16.9064 33.1776 16.0975 31.873 15.4937 30.335C14.8898 28.7855 14.5879 27.0423 14.5879 25.1055C14.5879 23.1686 14.8841 21.4141 15.4766 19.8418C16.069 18.2581 16.8893 16.8966 17.9375 15.7573C18.9743 14.6294 20.1991 13.7578 21.6118 13.1426C23.0246 12.5273 24.5342 12.2197 26.1406 12.2197C27.3369 12.2197 28.4193 12.3678 29.3877 12.6641C30.3561 12.9603 31.279 13.3761 32.1562 13.9116L32.8569 12.7495H34.2241L34.3779 21.397H32.9766C32.7943 20.5539 32.5208 19.6424 32.1562 18.6626C31.7917 17.6714 31.3644 16.834 30.8745 16.1504C30.3276 15.3757 29.6782 14.7718 28.9263 14.3389C28.1743 13.8945 27.3141 13.6724 26.3457 13.6724C25.2406 13.6724 24.2095 13.9173 23.2524 14.4072C22.3068 14.8971 21.4865 15.6206 20.7915 16.5776C20.1307 17.5005 19.6123 18.674 19.2363 20.0981C18.8604 21.5223 18.6724 23.1117 18.6724 24.8662C18.6724 26.4157 18.866 27.8398 19.2534 29.1387C19.6522 30.4261 20.2161 31.5597 20.9453 32.5396C21.6745 33.508 22.5347 34.2656 23.5259 34.8125C24.5285 35.3594 25.645 35.6328 26.8755 35.6328C27.7983 35.6328 28.6471 35.4904 29.4219 35.2056C30.1966 34.9093 30.8688 34.522 31.4385 34.0435C32.0081 33.5422 32.5094 32.9725 32.9424 32.3345C33.3753 31.6965 33.7285 31.0015 34.002 30.2495L35.2837 30.8647C34.3039 33.2687 33.005 34.9891 31.3872 36.0259C29.7694 37.0513 27.8439 37.564 25.6108 37.564Z" fill="black"/>
</svg>
